<svg xmlns="http://www.w3.org/2000/svg" xmlns:xlink="http://www.w3.org/1999/xlink" width="500" zoomAndPan="magnify" viewBox="0 0 375 374.999991" height="500" preserveAspectRatio="xMidYMid meet" version="1.0"><defs><clipPath id="207e01d36c"><path d="M 14.453125 26.011719 L 358 26.011719 L 358 337.261719 L 14.453125 337.261719 Z M 14.453125 26.011719 " clip-rule="nonzero"/></clipPath><clipPath id="bc49c6ac4e"><path d="M 247.183594 270.949219 L 268.933594 270.949219 L 268.933594 292.699219 L 247.183594 292.699219 Z M 247.183594 270.949219 " clip-rule="nonzero"/></clipPath></defs><g clip-path="url(#207e01d36c)"><path fill="#ffffff" d="M 29.234375 169.699219 C 37.402344 169.699219 44.019531 176.320312 44.019531 184.484375 C 44.019531 192.652344 37.402344 199.277344 29.234375 199.277344 C 21.074219 199.277344 14.453125 192.652344 14.453125 184.484375 C 14.453125 176.324219 21.074219 169.699219 29.234375 169.699219 M 38.644531 86.550781 C 45.621094 86.550781 51.28125 92.203125 51.28125 99.1875 C 51.28125 106.164062 45.621094 111.824219 38.644531 111.824219 C 31.667969 111.824219 26.007812 106.164062 26.007812 99.1875 C 26.007812 92.203125 31.667969 86.550781 38.644531 86.550781 Z M 92.890625 124.863281 C 103.882812 124.863281 112.800781 133.777344 112.800781 144.769531 C 112.800781 155.761719 103.882812 164.671875 92.890625 164.671875 C 81.898438 164.671875 72.984375 155.757812 72.984375 144.769531 C 72.988281 133.773438 81.898438 124.863281 92.890625 124.863281 Z M 115.890625 48.261719 C 126.0625 48.261719 134.3125 56.507812 134.3125 66.683594 C 134.3125 76.855469 126.0625 85.105469 115.890625 85.105469 C 105.71875 85.105469 97.476562 76.855469 97.476562 66.683594 C 97.476562 56.507812 105.71875 48.261719 115.890625 48.261719 Z M 224.90625 61.230469 L 261.238281 114.523438 L 262.695312 114.492188 C 280.984375 114.492188 295.8125 129.324219 295.8125 147.609375 C 295.8125 165.890625 280.984375 180.730469 262.695312 180.730469 C 254.09375 180.730469 245.972656 177.398438 239.894531 171.625 L 220.015625 178.832031 C 217.933594 185.882812 213.085938 191.734375 206.757812 195.152344 C 211.976562 196.886719 216.550781 200.21875 219.789062 204.683594 L 244.695312 204.574219 C 249.484375 198.320312 256.992188 194.480469 265.132812 194.480469 C 279.335938 194.480469 290.863281 206 290.863281 220.210938 C 290.863281 234.417969 279.339844 245.9375 265.132812 245.9375 C 257.03125 245.9375 249.5625 242.140625 244.769531 235.941406 L 219.5625 236.050781 C 215.578125 241.359375 209.703125 245.007812 203.113281 246.195312 L 193.699219 266.363281 C 194.761719 269.136719 195.308594 272.085938 195.308594 275.09375 C 195.308594 282.859375 191.683594 289.78125 186.03125 294.257812 C 202.328125 298.878906 216.964844 308.417969 227.816406 321.761719 L 281.5 321.761719 L 300.941406 283.386719 C 327.726562 276.664062 346.621094 277.644531 336.902344 245.070312 C 345.539062 236.804688 350.875 233.792969 341.144531 226.578125 C 345.191406 224.488281 346.476562 222.460938 347.058594 219.675781 L 340.019531 206.355469 C 354.097656 198.292969 360.542969 190.238281 355.574219 184.496094 L 323.476562 147.648438 C 318.03125 80.476562 274.050781 50.027344 226.886719 47.445312 C 226.9375 48.195312 226.964844 48.945312 226.964844 49.710938 C 226.964844 53.664062 226.261719 57.558594 224.90625 61.230469 Z M 217.390625 47.304688 C 216.183594 35.367188 206.101562 26.050781 193.851562 26.050781 C 180.78125 26.050781 170.1875 36.648438 170.1875 49.710938 C 170.1875 52.265625 170.59375 54.730469 171.34375 57.035156 C 174.429688 66.515625 183.339844 73.375 193.851562 73.375 C 197.8125 73.375 201.535156 72.402344 204.8125 70.6875 L 245.902344 130.945312 C 241.660156 135.222656 239.039062 141.109375 239.039062 147.601562 L 239.0625 148.605469 L 207.824219 159.933594 C 204.542969 155.785156 199.46875 153.121094 193.765625 153.121094 C 183.871094 153.121094 175.839844 161.152344 175.839844 171.050781 C 175.839844 180.949219 183.871094 188.972656 193.765625 188.972656 C 203.414062 188.972656 211.28125 181.347656 211.675781 171.800781 L 242.855469 160.492188 C 247.078125 166.976562 254.386719 171.265625 262.695312 171.265625 C 275.765625 171.265625 286.359375 160.664062 286.359375 147.601562 C 286.359375 134.535156 275.769531 123.9375 262.695312 123.9375 C 260.636719 123.9375 258.640625 124.203125 256.738281 124.691406 L 214.035156 62.0625 C 216.242188 58.464844 217.507812 54.234375 217.507812 49.710938 C 217.507812 48.898438 217.46875 48.09375 217.390625 47.304688 Z M 162.457031 262.710938 C 158.503906 265.402344 155.90625 269.945312 155.90625 275.085938 C 155.90625 282.851562 161.816406 289.242188 169.375 290 C 169.875 290.046875 170.371094 290.070312 170.882812 290.070312 C 179.15625 290.070312 185.863281 283.363281 185.863281 275.085938 C 185.863281 271.914062 184.875 268.96875 183.1875 266.542969 L 196.941406 237.089844 L 198.441406 237.15625 C 205.53125 237.15625 211.609375 232.796875 214.136719 226.613281 L 250.113281 226.457031 C 252.5625 232.34375 258.371094 236.476562 265.140625 236.476562 C 274.128906 236.476562 281.410156 229.191406 281.410156 220.203125 C 281.410156 211.222656 274.128906 203.929688 265.140625 203.929688 C 258.347656 203.929688 252.53125 208.089844 250.089844 214 L 214.28125 214.15625 C 211.84375 207.785156 205.671875 203.257812 198.445312 203.257812 C 192.855469 203.257812 187.890625 205.972656 184.800781 210.152344 L 155.15625 193.917969 C 155.460938 192.511719 155.625 191.050781 155.625 189.554688 C 155.625 183.183594 152.742188 177.488281 148.214844 173.703125 L 160.617188 143.042969 C 161.90625 143.203125 163.21875 143.292969 164.546875 143.292969 C 181.476562 143.292969 195.195312 129.570312 195.195312 112.640625 C 195.195312 95.710938 181.472656 81.988281 164.546875 81.988281 C 147.621094 81.988281 133.898438 95.710938 133.898438 112.640625 C 133.898438 123.816406 139.878906 133.589844 148.8125 138.949219 L 136.675781 168.96875 L 134.964844 168.898438 C 123.558594 168.898438 114.304688 178.144531 114.304688 189.554688 C 114.304688 200.960938 123.558594 210.207031 134.964844 210.207031 C 140.371094 210.207031 145.292969 208.132812 148.96875 204.734375 L 181.671875 222.644531 C 182.15625 226.023438 183.636719 229.074219 185.804688 231.503906 L 172.414062 260.195312 L 170.886719 260.117188 C 167.761719 260.109375 164.859375 261.070312 162.457031 262.710938 Z M 193.761719 143.671875 C 199.710938 143.671875 205.40625 145.597656 210.074219 149.058594 L 230.089844 141.800781 C 230.792969 137.851562 232.203125 134.078125 234.25 130.644531 L 201.105469 82.03125 C 198.734375 82.558594 196.304688 82.835938 193.851562 82.835938 L 191.257812 82.734375 C 199.472656 90.078125 204.644531 100.753906 204.644531 112.640625 C 204.644531 125.328125 198.746094 136.644531 189.542969 144 C 190.917969 143.78125 192.328125 143.671875 193.761719 143.671875 Z M 162.152344 303.074219 C 171.65625 303.074219 179.359375 310.777344 179.359375 320.28125 C 179.359375 329.785156 171.65625 337.488281 162.152344 337.488281 C 152.652344 337.488281 144.941406 329.785156 144.941406 320.28125 C 144.941406 310.777344 152.648438 303.074219 162.152344 303.074219 Z M 108.625 276.996094 C 118.128906 276.996094 125.832031 284.699219 125.832031 294.203125 C 125.832031 303.707031 118.128906 311.414062 108.625 311.414062 C 99.121094 311.414062 91.414062 303.707031 91.414062 294.203125 C 91.414062 284.699219 99.121094 276.996094 108.625 276.996094 Z M 82.039062 217.292969 C 90.054688 217.292969 96.550781 223.792969 96.550781 231.808594 C 96.550781 239.824219 90.054688 246.324219 82.039062 246.324219 C 74.015625 246.324219 67.523438 239.820312 67.523438 231.808594 C 67.523438 223.785156 74.019531 217.292969 82.039062 217.292969 Z M 82.039062 217.292969 " fill-opacity="1" fill-rule="evenodd"/></g><g clip-path="url(#bc49c6ac4e)"><path fill="#ffffff" d="M 269.097656 281.90625 C 269.097656 282.628906 269.027344 283.339844 268.886719 284.046875 C 268.746094 284.75 268.539062 285.4375 268.261719 286.101562 C 267.988281 286.765625 267.648438 287.398438 267.25 287.996094 C 266.851562 288.59375 266.398438 289.148438 265.886719 289.65625 C 265.378906 290.164062 264.824219 290.617188 264.226562 291.019531 C 263.628906 291.417969 262.996094 291.753906 262.332031 292.03125 C 261.667969 292.304688 260.984375 292.515625 260.277344 292.652344 C 259.570312 292.792969 258.859375 292.863281 258.140625 292.863281 C 257.421875 292.863281 256.707031 292.792969 256.003906 292.652344 C 255.296875 292.515625 254.613281 292.304688 253.945312 292.03125 C 253.28125 291.753906 252.652344 291.417969 252.050781 291.019531 C 251.453125 290.617188 250.902344 290.164062 250.390625 289.65625 C 249.882812 289.148438 249.429688 288.59375 249.03125 287.996094 C 248.628906 287.398438 248.292969 286.765625 248.015625 286.101562 C 247.742188 285.4375 247.535156 284.75 247.394531 284.046875 C 247.253906 283.339844 247.183594 282.628906 247.183594 281.90625 C 247.183594 281.1875 247.253906 280.476562 247.394531 279.769531 C 247.535156 279.066406 247.742188 278.378906 248.015625 277.714844 C 248.292969 277.050781 248.628906 276.417969 249.03125 275.820312 C 249.429688 275.222656 249.882812 274.667969 250.390625 274.160156 C 250.902344 273.652344 251.453125 273.195312 252.050781 272.796875 C 252.652344 272.398438 253.28125 272.058594 253.945312 271.785156 C 254.613281 271.507812 255.296875 271.300781 256.003906 271.160156 C 256.707031 271.019531 257.421875 270.949219 258.140625 270.949219 C 258.859375 270.949219 259.570312 271.019531 260.277344 271.160156 C 260.984375 271.300781 261.667969 271.507812 262.332031 271.785156 C 262.996094 272.058594 263.628906 272.398438 264.226562 272.796875 C 264.824219 273.195312 265.378906 273.652344 265.886719 274.160156 C 266.398438 274.667969 266.851562 275.222656 267.25 275.820312 C 267.648438 276.417969 267.988281 277.050781 268.261719 277.714844 C 268.539062 278.378906 268.746094 279.066406 268.886719 279.769531 C 269.027344 280.476562 269.097656 281.1875 269.097656 281.90625 Z M 269.097656 281.90625 " fill-opacity="1" fill-rule="nonzero"/></g></svg>